<svg xmlns="http://www.w3.org/2000/svg" width="64" height="64" viewBox="0 0 64 64">
  <defs>
    <linearGradient id="g" x1="0" x2="1" y1="0" y2="1">
      <stop offset="0" stop-color="#7c3aed"/>
      <stop offset="1" stop-color="#4f46e5"/>
    </linearGradient>
  </defs>
  <rect x="6" y="6" width="52" height="52" rx="14" fill="url(#g)"/>
  <path d="M25 17h9l8 8v20a2 2 0 0 1-2 2H25a2 2 0 0 1-2-2V19a2 2 0 0 1 2-2z" fill="#ffffff"/>
  <path d="M34 17v6a2 2 0 0 0 2 2h6z" fill="#ddd6fe"/>
  <rect x="28" y="33" width="16" height="2.6" rx="1.3" fill="#a78bfa"/>
  <rect x="28" y="39" width="16" height="2.6" rx="1.3" fill="#a78bfa"/>
  <rect x="28" y="45" width="10" height="2.6" rx="1.3" fill="#c4b5fd"/>
</svg>
