<svg xmlns="http://www.w3.org/2000/svg" width="1200" height="630" viewBox="0 0 1200 630">
  <defs>
    <linearGradient id="bg" x1="0" x2="1" y1="0" y2="1">
      <stop offset="0" stop-color="#ede9fe"/>
      <stop offset="1" stop-color="#e0e7ff"/>
    </linearGradient>
    <linearGradient id="card" x1="0" x2="1" y1="0" y2="1">
      <stop offset="0" stop-color="#7c3aed"/>
      <stop offset="1" stop-color="#4f46e5"/>
    </linearGradient>
  </defs>
  <rect width="1200" height="630" fill="url(#bg)"/>
  <rect x="84" y="96" width="1032" height="438" rx="36" fill="#ffffff" opacity="0.9"/>
  <rect x="132" y="148" width="92" height="92" rx="24" fill="url(#card)"/>
  <path d="M163 172h22l20 20v40a5 5 0 0 1-5 5h-37a5 5 0 0 1-5-5v-55a5 5 0 0 1 5-5z" fill="#ffffff"/>
  <path d="M185 172v15a5 5 0 0 0 5 5h15z" fill="#ddd6fe"/>
  <text x="264" y="208" font-family="ui-sans-serif, system-ui" font-size="58" font-weight="800" fill="#0f172a">PDFora</text>
  <text x="264" y="266" font-family="ui-sans-serif, system-ui" font-size="30" font-weight="600" fill="#7c3aed">PDF Designer</text>
  <text x="132" y="356" font-family="ui-sans-serif, system-ui" font-size="30" font-weight="500" fill="#334155">Design and generate polished, customized PDFs in seconds.</text>
  <rect x="132" y="392" width="936" height="12" rx="6" fill="#e2e8f0"/>
  <rect x="132" y="430" width="860" height="12" rx="6" fill="#e2e8f0"/>
  <rect x="132" y="468" width="780" height="12" rx="6" fill="#e2e8f0"/>
</svg>
